<svg xmlns="http://www.w3.org/2000/svg" xmlns:xlink="http://www.w3.org/1999/xlink" xmlns:lucid="lucid" width="1341" height="1240"><g transform="translate(0 -51)" lucid:page-tab-id="HWEp-vi-RSFO"><path d="M0 0h1360v1760H0z" fill="#151515"/><path d="M580 160h300v476H580z" stroke="#fff" stroke-width="2" fill="#282c33"/><path d="M580 208.27h300M580 567.43h300" stroke="#fff" stroke-width="2" fill="none"/><use xlink:href="#a" transform="matrix(1,0,0,1,588,168) translate(119.62993827160494 21.877777777777776)"/><use xlink:href="#b" transform="matrix(1,0,0,1,592,216.26666666666665) translate(0 32.17777777777782)"/><use xlink:href="#c" transform="matrix(1,0,0,1,592,216.26666666666665) translate(16.357407407407404 32.17777777777782)"/><use xlink:href="#d" transform="matrix(1,0,0,1,592,216.26666666666665) translate(44.66543209876542 32.17777777777782)"/><use xlink:href="#e" transform="matrix(1,0,0,1,592,216.26666666666665) translate(59.60370370370369 32.17777777777782)"/><use xlink:href="#b" transform="matrix(1,0,0,1,592,216.26666666666665) translate(0 64.44444444444449)"/><use xlink:href="#f" transform="matrix(1,0,0,1,592,216.26666666666665) translate(16.357407407407404 64.44444444444449)"/><use xlink:href="#d" transform="matrix(1,0,0,1,592,216.26666666666665) translate(90.97407407407407 64.44444444444449)"/><use xlink:href="#g" transform="matrix(1,0,0,1,592,216.26666666666665) translate(105.91234567901233 64.44444444444449)"/><use xlink:href="#b" transform="matrix(1,0,0,1,592,216.26666666666665) translate(0 96.71111111111114)"/><use xlink:href="#h" transform="matrix(1,0,0,1,592,216.26666666666665) translate(16.357407407407404 96.71111111111114)"/><use xlink:href="#g" transform="matrix(1,0,0,1,592,216.26666666666665) translate(161.03456790123454 96.71111111111114)"/><use xlink:href="#b" transform="matrix(1,0,0,1,592,216.26666666666665) translate(0 128.97777777777782)"/><use xlink:href="#i" transform="matrix(1,0,0,1,592,216.26666666666665) translate(16.357407407407404 128.97777777777782)"/><use xlink:href="#d" transform="matrix(1,0,0,1,592,216.26666666666665) translate(140.12098765432097 128.97777777777782)"/><use xlink:href="#g" transform="matrix(1,0,0,1,592,216.26666666666665) translate(155.05925925925925 128.97777777777782)"/><use xlink:href="#b" transform="matrix(1,0,0,1,592,216.26666666666665) translate(0 161.24444444444447)"/><use xlink:href="#j" transform="matrix(1,0,0,1,592,216.26666666666665) translate(16.357407407407404 161.24444444444447)"/><use xlink:href="#d" transform="matrix(1,0,0,1,592,216.26666666666665) translate(129.66419753086416 161.24444444444447)"/><use xlink:href="#k" transform="matrix(1,0,0,1,592,216.26666666666665) translate(144.60246913580244 161.24444444444447)"/><use xlink:href="#b" transform="matrix(1,0,0,1,592,216.26666666666665) translate(0 193.51111111111112)"/><use xlink:href="#l" transform="matrix(1,0,0,1,592,216.26666666666665) translate(16.357407407407404 193.51111111111112)"/><use xlink:href="#d" transform="matrix(1,0,0,1,592,216.26666666666665) translate(180.4543209876543 193.51111111111112)"/><use xlink:href="#g" transform="matrix(1,0,0,1,592,216.26666666666665) translate(195.3925925925926 193.51111111111112)"/><use xlink:href="#b" transform="matrix(1,0,0,1,592,216.26666666666665) translate(0 225.77777777777777)"/><use xlink:href="#m" transform="matrix(1,0,0,1,592,216.26666666666665) translate(16.357407407407404 225.77777777777777)"/><use xlink:href="#n" transform="matrix(1,0,0,1,592,216.26666666666665) translate(171.56604938271602 225.77777777777777)"/><use xlink:href="#o" transform="matrix(1,0,0,1,592,216.26666666666665) translate(0 258.0444444444444)"/><use xlink:href="#b" transform="matrix(1,0,0,1,592,216.26666666666665) translate(0 290.3111111111111)"/><use xlink:href="#p" transform="matrix(1,0,0,1,592,216.26666666666665) translate(16.357407407407404 290.3111111111111)"/><use xlink:href="#d" transform="matrix(1,0,0,1,592,216.26666666666665) translate(92.46790123456789 290.3111111111111)"/><use xlink:href="#g" transform="matrix(1,0,0,1,592,216.26666666666665) translate(107.40617283950616 290.3111111111111)"/><use xlink:href="#b" transform="matrix(1,0,0,1,592,216.26666666666665) translate(0 322.5777777777777)"/><use xlink:href="#q" transform="matrix(1,0,0,1,592,216.26666666666665) translate(16.357407407407404 322.5777777777777)"/><use xlink:href="#d" transform="matrix(1,0,0,1,592,216.26666666666665) translate(150.7271604938271 322.5777777777777)"/><use xlink:href="#r" transform="matrix(1,0,0,1,592,216.26666666666665) translate(165.6654320987654 322.5777777777777)"/><path d="M20 80h300v283H20z" stroke="#fff" stroke-width="2" fill="#282c33"/><path d="M20 128.27h300M20 293.83h300" stroke="#fff" stroke-width="2" fill="none"/><use xlink:href="#s" transform="matrix(1,0,0,1,28,88) translate(83.89012345679014 21.877777777777776)"/><use xlink:href="#b" transform="matrix(1,0,0,1,32,136.26666666666665) translate(0 31.97777777777779)"/><use xlink:href="#c" transform="matrix(1,0,0,1,32,136.26666666666665) translate(16.357407407407404 31.97777777777779)"/><use xlink:href="#d" transform="matrix(1,0,0,1,32,136.26666666666665) translate(44.66543209876542 31.97777777777779)"/><use xlink:href="#e" transform="matrix(1,0,0,1,32,136.26666666666665) translate(59.60370370370369 31.97777777777779)"/><use xlink:href="#b" transform="matrix(1,0,0,1,32,136.26666666666665) translate(0 64.24444444444444)"/><use xlink:href="#f" transform="matrix(1,0,0,1,32,136.26666666666665) translate(16.357407407407404 64.24444444444444)"/><use xlink:href="#d" transform="matrix(1,0,0,1,32,136.26666666666665) translate(90.97407407407407 64.24444444444444)"/><use xlink:href="#g" transform="matrix(1,0,0,1,32,136.26666666666665) translate(105.91234567901233 64.24444444444444)"/><use xlink:href="#b" transform="matrix(1,0,0,1,32,136.26666666666665) translate(0 96.5111111111111)"/><use xlink:href="#j" transform="matrix(1,0,0,1,32,136.26666666666665) translate(16.357407407407404 96.5111111111111)"/><use xlink:href="#d" transform="matrix(1,0,0,1,32,136.26666666666665) translate(129.66419753086416 96.5111111111111)"/><use xlink:href="#k" transform="matrix(1,0,0,1,32,136.26666666666665) translate(144.60246913580244 96.5111111111111)"/><use xlink:href="#b" transform="matrix(1,0,0,1,32,136.26666666666665) translate(0 128.77777777777777)"/><use xlink:href="#q" transform="matrix(1,0,0,1,32,136.26666666666665) translate(16.357407407407404 128.77777777777777)"/><use xlink:href="#d" transform="matrix(1,0,0,1,32,136.26666666666665) translate(150.7271604938271 128.77777777777777)"/><use xlink:href="#r" transform="matrix(1,0,0,1,32,136.26666666666665) translate(165.6654320987654 128.77777777777777)"/><path d="M20 430h300v250H20z" stroke="#fff" stroke-width="2" fill="#282c33"/><path d="M20 478.27h300M20 611.57h300" stroke="#fff" stroke-width="2" fill="none"/><use xlink:href="#t" transform="matrix(1,0,0,1,28,438) translate(73.35864197530866 21.877777777777776)"/><use xlink:href="#b" transform="matrix(1,0,0,1,32,486.26666666666665) translate(0 32.111111111111114)"/><use xlink:href="#c" transform="matrix(1,0,0,1,32,486.26666666666665) translate(16.357407407407404 32.111111111111114)"/><use xlink:href="#d" transform="matrix(1,0,0,1,32,486.26666666666665) translate(44.66543209876542 32.111111111111114)"/><use xlink:href="#e" transform="matrix(1,0,0,1,32,486.26666666666665) translate(59.60370370370369 32.111111111111114)"/><use xlink:href="#b" transform="matrix(1,0,0,1,32,486.26666666666665) translate(0 64.37777777777777)"/><use xlink:href="#u" transform="matrix(1,0,0,1,32,486.26666666666665) translate(16.357407407407404 64.37777777777777)"/><use xlink:href="#d" transform="matrix(1,0,0,1,32,486.26666666666665) translate(178.96049382716046 64.37777777777777)"/><use xlink:href="#g" transform="matrix(1,0,0,1,32,486.26666666666665) translate(193.89876543209874 64.37777777777777)"/><use xlink:href="#b" transform="matrix(1,0,0,1,32,486.26666666666665) translate(0 96.64444444444443)"/><use xlink:href="#q" transform="matrix(1,0,0,1,32,486.26666666666665) translate(16.357407407407404 96.64444444444443)"/><use xlink:href="#d" transform="matrix(1,0,0,1,32,486.26666666666665) translate(150.7271604938271 96.64444444444443)"/><use xlink:href="#r" transform="matrix(1,0,0,1,32,486.26666666666665) translate(165.6654320987654 96.64444444444443)"/><path d="M160 720h300v218H160z" stroke="#fff" stroke-width="2" fill="#282c33"/><path d="M160 768.27h300M160 869.3h300" stroke="#fff" stroke-width="2" fill="none"/><g><use xlink:href="#v" transform="matrix(1,0,0,1,168,728) translate(36.16234567901235 21.877777777777776)"/></g><g><use xlink:href="#b" transform="matrix(1,0,0,1,172,776.2666666666667) translate(0 32.24444444444445)"/><use xlink:href="#c" transform="matrix(1,0,0,1,172,776.2666666666667) translate(16.357407407407404 32.24444444444445)"/><use xlink:href="#d" transform="matrix(1,0,0,1,172,776.2666666666667) translate(44.66543209876542 32.24444444444445)"/><use xlink:href="#e" transform="matrix(1,0,0,1,172,776.2666666666667) translate(59.60370370370369 32.24444444444445)"/><use xlink:href="#b" transform="matrix(1,0,0,1,172,776.2666666666667) translate(0 64.5111111111111)"/><use xlink:href="#q" transform="matrix(1,0,0,1,172,776.2666666666667) translate(16.357407407407404 64.5111111111111)"/><use xlink:href="#d" transform="matrix(1,0,0,1,172,776.2666666666667) translate(150.7271604938271 64.5111111111111)"/><use xlink:href="#r" transform="matrix(1,0,0,1,172,776.2666666666667) translate(165.6654320987654 64.5111111111111)"/></g><path d="M580 980h300v283H580z" stroke="#fff" stroke-width="2" fill="#282c33"/><path d="M580 1028.27h300m-300 165.56h300" stroke="#fff" stroke-width="2" fill="none"/><g><use xlink:href="#w" transform="matrix(1,0,0,1,588,988) translate(58.53240740740742 21.877777777777776)"/></g><g><use xlink:href="#b" transform="matrix(1,0,0,1,592,1036.2666666666667) translate(0 31.97777777777779)"/><use xlink:href="#c" transform="matrix(1,0,0,1,592,1036.2666666666667) translate(16.357407407407404 31.97777777777779)"/><use xlink:href="#d" transform="matrix(1,0,0,1,592,1036.2666666666667) translate(44.66543209876542 31.97777777777779)"/><use xlink:href="#e" transform="matrix(1,0,0,1,592,1036.2666666666667) translate(59.60370370370369 31.97777777777779)"/><use xlink:href="#b" transform="matrix(1,0,0,1,592,1036.2666666666667) translate(0 64.24444444444444)"/><use xlink:href="#f" transform="matrix(1,0,0,1,592,1036.2666666666667) translate(16.357407407407404 64.24444444444444)"/><use xlink:href="#d" transform="matrix(1,0,0,1,592,1036.2666666666667) translate(90.97407407407407 64.24444444444444)"/><use xlink:href="#g" transform="matrix(1,0,0,1,592,1036.2666666666667) translate(105.91234567901233 64.24444444444444)"/><use xlink:href="#b" transform="matrix(1,0,0,1,592,1036.2666666666667) translate(0 96.5111111111111)"/><use xlink:href="#x" transform="matrix(1,0,0,1,592,1036.2666666666667) translate(16.357407407407404 96.5111111111111)"/><use xlink:href="#d" transform="matrix(1,0,0,1,592,1036.2666666666667) translate(153.5654320987654 96.5111111111111)"/><use xlink:href="#g" transform="matrix(1,0,0,1,592,1036.2666666666667) translate(168.50370370370368 96.5111111111111)"/><use xlink:href="#b" transform="matrix(1,0,0,1,592,1036.2666666666667) translate(0 128.77777777777777)"/><use xlink:href="#q" transform="matrix(1,0,0,1,592,1036.2666666666667) translate(16.357407407407404 128.77777777777777)"/><use xlink:href="#d" transform="matrix(1,0,0,1,592,1036.2666666666667) translate(150.7271604938271 128.77777777777777)"/><use xlink:href="#r" transform="matrix(1,0,0,1,592,1036.2666666666667) translate(165.6654320987654 128.77777777777777)"/></g><path d="M578.52 294.3l-257.04-72" stroke="#fff" fill="none"/><path d="M579 293.92v1.04l-.63-.17.27-.98zM321.63 221.82l-.27.96-.36-.1v-1.04z" stroke="#fff" stroke-width=".05" fill="#fff"/><g><use xlink:href="#y" transform="matrix(1,0,0,1,534.7394059224176,250.32676448402447) translate(0 21.511111111111106)"/></g><g><use xlink:href="#z" transform="matrix(1,0,0,1,320.8677443657172,228.6791225372656) translate(0 21.511111111111106)"/></g><path d="M321.48 554.88l228.06-57.4" stroke="#fff" fill="none"/><path d="M321.62 555.36l-.62.16v-1.04l.38-.1z" stroke="#fff" stroke-width=".05" fill="#fff"/><path d="M578.3 490.24l-10.76 18.03-18.32-10.7 11.07-18.1z" stroke="#fff" fill="#333333"/><path d="M730.5 978.5h-1V849.07h1zm0-161.7h-1V637.5h1z" stroke="#fff" stroke-width=".05" fill="#fff"/><path d="M730.5 637.5h-1v-.5h1z" fill="#fff"/><path d="M730.52 637.54h-1.04v-.56h1.04zm-1-.5v.45h.96V637z" stroke="#fff" stroke-width=".05" fill="#fff"/><path d="M730.5 979h-1v-.5h1z" fill="#fff"/><path d="M730.52 979.02h-1.04v-.56h1.04zm-1-.5v.46h.96v-.47z" stroke="#fff" stroke-width=".05" fill="#fff"/><g><use xlink:href="#A" transform="matrix(1,0,0,1,681.6666666666667,636.8666666666667) translate(0 21.511111111111106)"/></g><g><use xlink:href="#B" transform="matrix(1,0,0,1,738.0000000000002,946.8666666666669) translate(0 21.511111111111106)"/></g><g><use xlink:href="#C" transform="matrix(1,0,0,1,632.3410493827162,816.800014722003) translate(0.0049999999999954525 21.511111111111106)"/></g><path d="M629.6 831.4l-.03 1-9.9-.17.03-1zm-14.84-.25l-.02 1-9.9-.17.03-1zm-14.83-.26l-.02 1-9.88-.18.02-1zm-14.83-.26l-.02 1-9.9-.17.03-1zm-14.83-.26l-.02 1-9.9-.17.03-1zm-14.83-.25l-.02 1-9.9-.17.03-1zm-14.84-.26v1l-9.9-.17.02-1zm-14.83-.25v1l-9.9-.18.02-1zm-14.83-.26v1l-9.9-.17.02-1zm-14.83-.26v1l-9.9-.17.03-1zm-14.82-.25v1l-9.9-.17.02-1zm-14.83-.26l-.02 1-4.94-.1v-1z" stroke="#fff" stroke-width=".05" fill="#fff"/><path d="M461.52 828.5l-.02 1h-.5v-1z" fill="#fff"/><path d="M461.55 828.48l-.02 1.05h-.55v-1.06zm-.53 1h.46l.02-.95h-.48z" stroke="#fff" stroke-width=".05" fill="#fff"/><path fill="#fff"/><path stroke="#fff" stroke-width=".05" fill="#fff"/><path d="M1020 189.1h300v412h-300z" stroke="#fff" stroke-width="2" fill="#282c33"/><path d="M1020 237.36h300M1020 532h300" stroke="#fff" stroke-width="2" fill="none"/><g><use xlink:href="#D" transform="matrix(1,0,0,1,1028,197.08833922261482) translate(101.0317901234568 21.877777777777776)"/></g><g><use xlink:href="#b" transform="matrix(1,0,0,1,1032,245.35500588928147) translate(0 31.9444444444445)"/><use xlink:href="#c" transform="matrix(1,0,0,1,1032,245.35500588928147) translate(16.357407407407404 31.9444444444445)"/><use xlink:href="#d" transform="matrix(1,0,0,1,1032,245.35500588928147) translate(44.66543209876542 31.9444444444445)"/><use xlink:href="#e" transform="matrix(1,0,0,1,1032,245.35500588928147) translate(59.60370370370369 31.9444444444445)"/><use xlink:href="#b" transform="matrix(1,0,0,1,1032,245.35500588928147) translate(0 64.21111111111117)"/><use xlink:href="#E" transform="matrix(1,0,0,1,1032,245.35500588928147) translate(16.357407407407404 64.21111111111117)"/><use xlink:href="#d" transform="matrix(1,0,0,1,1032,245.35500588928147) translate(143.258024691358 64.21111111111117)"/><use xlink:href="#F" transform="matrix(1,0,0,1,1032,245.35500588928147) translate(158.19629629629628 64.21111111111117)"/><use xlink:href="#b" transform="matrix(1,0,0,1,1032,245.35500588928147) translate(0 96.47777777777782)"/><use xlink:href="#G" transform="matrix(1,0,0,1,1032,245.35500588928147) translate(16.357407407407404 96.47777777777782)"/><use xlink:href="#F" transform="matrix(1,0,0,1,1032,245.35500588928147) translate(143.3327160493827 96.47777777777782)"/><use xlink:href="#b" transform="matrix(1,0,0,1,1032,245.35500588928147) translate(0 128.74444444444447)"/><use xlink:href="#H" transform="matrix(1,0,0,1,1032,245.35500588928147) translate(16.357407407407404 128.74444444444447)"/><use xlink:href="#n" transform="matrix(1,0,0,1,1032,245.35500588928147) translate(255.2203703703704 128.74444444444447)"/><use xlink:href="#F" transform="matrix(1,0,0,1,1032,245.35500588928147) translate(0 161.01111111111112)"/><use xlink:href="#b" transform="matrix(1,0,0,1,1032,245.35500588928147) translate(0 193.27777777777777)"/><use xlink:href="#I" transform="matrix(1,0,0,1,1032,245.35500588928147) translate(16.357407407407404 193.27777777777777)"/><use xlink:href="#d" transform="matrix(1,0,0,1,1032,245.35500588928147) translate(74.54197530864197 193.27777777777777)"/><use xlink:href="#o" transform="matrix(1,0,0,1,1032,245.35500588928147) translate(89.48024691358023 193.27777777777777)"/><use xlink:href="#b" transform="matrix(1,0,0,1,1032,245.35500588928147) translate(0 225.54444444444442)"/><use xlink:href="#q" transform="matrix(1,0,0,1,1032,245.35500588928147) translate(16.357407407407404 225.54444444444442)"/><use xlink:href="#d" transform="matrix(1,0,0,1,1032,245.35500588928147) translate(150.7271604938271 225.54444444444442)"/><use xlink:href="#F" transform="matrix(1,0,0,1,1032,245.35500588928147) translate(165.6654320987654 225.54444444444442)"/><use xlink:href="#b" transform="matrix(1,0,0,1,1032,245.35500588928147) translate(0 257.8111111111111)"/><use xlink:href="#J" transform="matrix(1,0,0,1,1032,245.35500588928147) translate(16.357407407407404 257.8111111111111)"/><use xlink:href="#d" transform="matrix(1,0,0,1,1032,245.35500588928147) translate(158.27098765432095 257.8111111111111)"/><use xlink:href="#r" transform="matrix(1,0,0,1,1032,245.35500588928147) translate(173.20925925925923 257.8111111111111)"/></g><path d="M1020 780h300v412h-300z" stroke="#fff" stroke-width="2" fill="#282c33"/><path d="M1020 828.27h300m-300 294.63h300" stroke="#fff" stroke-width="2" fill="none"/><g><use xlink:href="#K" transform="matrix(1,0,0,1,1028,788) translate(112.1608024691358 21.877777777777776)"/></g><g><use xlink:href="#b" transform="matrix(1,0,0,1,1032,836.2666666666667) translate(0 31.9444444444445)"/><use xlink:href="#c" transform="matrix(1,0,0,1,1032,836.2666666666667) translate(16.357407407407404 31.9444444444445)"/><use xlink:href="#d" transform="matrix(1,0,0,1,1032,836.2666666666667) translate(44.66543209876542 31.9444444444445)"/><use xlink:href="#e" transform="matrix(1,0,0,1,1032,836.2666666666667) translate(59.60370370370369 31.9444444444445)"/><use xlink:href="#b" transform="matrix(1,0,0,1,1032,836.2666666666667) translate(0 64.21111111111117)"/><use xlink:href="#f" transform="matrix(1,0,0,1,1032,836.2666666666667) translate(16.357407407407404 64.21111111111117)"/><use xlink:href="#d" transform="matrix(1,0,0,1,1032,836.2666666666667) translate(90.97407407407407 64.21111111111117)"/><use xlink:href="#g" transform="matrix(1,0,0,1,1032,836.2666666666667) translate(105.91234567901233 64.21111111111117)"/><use xlink:href="#b" transform="matrix(1,0,0,1,1032,836.2666666666667) translate(0 96.47777777777782)"/><use xlink:href="#L" transform="matrix(1,0,0,1,1032,836.2666666666667) translate(16.357407407407404 96.47777777777782)"/><use xlink:href="#g" transform="matrix(1,0,0,1,1032,836.2666666666667) translate(146.17098765432095 96.47777777777782)"/><use xlink:href="#b" transform="matrix(1,0,0,1,1032,836.2666666666667) translate(0 128.74444444444447)"/><use xlink:href="#M" transform="matrix(1,0,0,1,1032,836.2666666666667) translate(16.357407407407404 128.74444444444447)"/><use xlink:href="#g" transform="matrix(1,0,0,1,1032,836.2666666666667) translate(95.30617283950616 128.74444444444447)"/><use xlink:href="#b" transform="matrix(1,0,0,1,1032,836.2666666666667) translate(0 161.01111111111112)"/><use xlink:href="#N" transform="matrix(1,0,0,1,1032,836.2666666666667) translate(16.357407407407404 161.01111111111112)"/><use xlink:href="#d" transform="matrix(1,0,0,1,1032,836.2666666666667) translate(189.2679012345679 161.01111111111112)"/><use xlink:href="#g" transform="matrix(1,0,0,1,1032,836.2666666666667) translate(204.20617283950617 161.01111111111112)"/><use xlink:href="#b" transform="matrix(1,0,0,1,1032,836.2666666666667) translate(0 193.27777777777777)"/><use xlink:href="#O" transform="matrix(1,0,0,1,1032,836.2666666666667) translate(16.357407407407404 193.27777777777777)"/><use xlink:href="#d" transform="matrix(1,0,0,1,1032,836.2666666666667) translate(96.87469135802468 193.27777777777777)"/><use xlink:href="#k" transform="matrix(1,0,0,1,1032,836.2666666666667) translate(111.81296296296294 193.27777777777777)"/><use xlink:href="#b" transform="matrix(1,0,0,1,1032,836.2666666666667) translate(0 225.54444444444442)"/><use xlink:href="#P" transform="matrix(1,0,0,1,1032,836.2666666666667) translate(16.357407407407404 225.54444444444442)"/><use xlink:href="#d" transform="matrix(1,0,0,1,1032,836.2666666666667) translate(98.4432098765432 225.54444444444442)"/><use xlink:href="#g" transform="matrix(1,0,0,1,1032,836.2666666666667) translate(113.38148148148146 225.54444444444442)"/><use xlink:href="#b" transform="matrix(1,0,0,1,1032,836.2666666666667) translate(0 257.8111111111111)"/><use xlink:href="#q" transform="matrix(1,0,0,1,1032,836.2666666666667) translate(16.357407407407404 257.8111111111111)"/><use xlink:href="#d" transform="matrix(1,0,0,1,1032,836.2666666666667) translate(150.7271604938271 257.8111111111111)"/><use xlink:href="#r" transform="matrix(1,0,0,1,1032,836.2666666666667) translate(165.6654320987654 257.8111111111111)"/></g><path d="M881.5 398h137" stroke="#fff" fill="none"/><path d="M881.5 398.5h-.5v-1h.5zM1019 398.5h-.5v-1h.5z" stroke="#fff" stroke-width=".05" fill="#fff"/><g><use xlink:href="#z" transform="matrix(1,0,0,1,880.5308641975308,402) translate(0 21.511111111111106)"/></g><g><use xlink:href="#B" transform="matrix(1,0,0,1,978.8333333333331,361.73333333333335) translate(0 21.511111111111106)"/></g><path d="M1170 602.6v175.9" stroke="#fff" fill="none"/><path d="M1170.5 602.6h-1v-.5h1zM1170.5 779h-1v-.5h1z" stroke="#fff" stroke-width=".05" fill="#fff"/><g><use xlink:href="#y" transform="matrix(1,0,0,1,1117.1851851851852,601.9550058892816) translate(0 21.511111111111106)"/></g><g><use xlink:href="#z" transform="matrix(1,0,0,1,1178,746.8666666666668) translate(0 21.511111111111106)"/></g><path d="M1321.5 786.4h35.8a3.7 3.7 0 0 0 3.7-3.7 3.7 3.7 0 0 0-3.7-3.7h-19.92" stroke="#333" fill="none"/><path d="M1321.5 786.9h-.5v-1h.5z" stroke="#333" stroke-width=".05" fill="#333"/><path d="M1322.62 779l14.26-4.64v9.28z" stroke="#333" fill="#333"/><defs><path fill="#fff" d="M67-125c0 53 21 87 73 88 37 1 54-22 65-47l45 17C233-25 199 4 140 4 58 4 20-42 15-125 8-235 124-281 211-232c18 10 29 29 36 50l-46 12c-8-25-30-41-62-41-52 0-71 34-72 86" id="Q"/><path fill="#fff" d="M133-34C117-15 103 5 69 4 32 3 11-16 11-54c-1-60 55-63 116-61 1-26-3-47-28-47-18 1-26 9-28 27l-52-2c7-38 36-58 82-57s74 22 75 68l1 82c-1 14 12 18 25 15v27c-30 8-71 5-69-32zm-48 3c29 0 43-24 42-57-32 0-66-3-65 30 0 17 8 27 23 27" id="R"/><path fill="#fff" d="M135-150c-39-12-60 13-60 57V0H25l-1-190h47c2 13-1 29 3 40 6-28 27-53 61-41v41" id="S"/><g id="a"><use transform="matrix(0.07469135802469135,0,0,0.07469135802469135,0,0)" xlink:href="#Q"/><use transform="matrix(0.07469135802469135,0,0,0.07469135802469135,19.34506172839506,0)" xlink:href="#R"/><use transform="matrix(0.07469135802469135,0,0,0.07469135802469135,34.28333333333333,0)" xlink:href="#S"/></g><path fill="#fff" d="M16-82v-28h88v28H16" id="T"/><use transform="matrix(0.07469135802469135,0,0,0.07469135802469135,0,0)" xlink:href="#T" id="b"/><path fill="#fff" d="M24-231v-30h32v30H24zM24 0v-190h32V0H24" id="U"/><path fill="#fff" d="M85-194c31 0 48 13 60 33l-1-100h32l1 261h-30c-2-10 0-23-3-31C134-8 116 4 85 4 32 4 16-35 15-94c0-66 23-100 70-100zm9 24c-40 0-46 34-46 75 0 40 6 74 45 74 42 0 51-32 51-76 0-42-9-74-50-73" id="V"/><g id="c"><use transform="matrix(0.07469135802469135,0,0,0.07469135802469135,0,0)" xlink:href="#U"/><use transform="matrix(0.07469135802469135,0,0,0.07469135802469135,5.900617283950616,0)" xlink:href="#V"/></g><path fill="#fff" d="M33-154v-36h34v36H33zM33 0v-36h34V0H33" id="W"/><use transform="matrix(0.07469135802469135,0,0,0.07469135802469135,0,0)" xlink:href="#W" id="d"/><path fill="#fff" d="M84 4C-5 8 30-112 23-190h32v120c0 31 7 50 39 49 72-2 45-101 50-169h31l1 190h-30c-1-10 1-25-2-33-11 22-28 36-60 37" id="X"/><g id="e"><use transform="matrix(0.07469135802469135,0,0,0.07469135802469135,0,0)" xlink:href="#X"/><use transform="matrix(0.07469135802469135,0,0,0.07469135802469135,14.938271604938269,0)" xlink:href="#X"/><use transform="matrix(0.07469135802469135,0,0,0.07469135802469135,29.876543209876537,0)" xlink:href="#U"/><use transform="matrix(0.07469135802469135,0,0,0.07469135802469135,35.777160493827154,0)" xlink:href="#V"/></g><path fill="#fff" d="M117-194c89-4 53 116 60 194h-32v-121c0-31-8-49-39-48C34-167 62-67 57 0H25l-1-190h30c1 10-1 24 2 32 11-22 29-35 61-36" id="Y"/><path fill="#fff" d="M141-36C126-15 110 5 73 4 37 3 15-17 15-53c-1-64 63-63 125-63 3-35-9-54-41-54-24 1-41 7-42 31l-33-3c5-37 33-52 76-52 45 0 72 20 72 64v82c-1 20 7 32 28 27v20c-31 9-61-2-59-35zM48-53c0 20 12 33 32 33 41-3 63-29 60-74-43 2-92-5-92 41" id="Z"/><path fill="#fff" d="M210-169c-67 3-38 105-44 169h-31v-121c0-29-5-50-35-48C34-165 62-65 56 0H25l-1-190h30c1 10-1 24 2 32 10-44 99-50 107 0 11-21 27-35 58-36 85-2 47 119 55 194h-31v-121c0-29-5-49-35-48" id="aa"/><path fill="#fff" d="M100-194c63 0 86 42 84 106H49c0 40 14 67 53 68 26 1 43-12 49-29l28 8c-11 28-37 45-77 45C44 4 14-33 15-96c1-61 26-98 85-98zm52 81c6-60-76-77-97-28-3 7-6 17-6 28h103" id="ab"/><g id="f"><use transform="matrix(0.07469135802469135,0,0,0.07469135802469135,0,0)" xlink:href="#Y"/><use transform="matrix(0.07469135802469135,0,0,0.07469135802469135,14.938271604938269,0)" xlink:href="#Z"/><use transform="matrix(0.07469135802469135,0,0,0.07469135802469135,29.876543209876537,0)" xlink:href="#aa"/><use transform="matrix(0.07469135802469135,0,0,0.07469135802469135,52.20925925925925,0)" xlink:href="#ab"/></g><path fill="#fff" d="M135-143c-3-34-86-38-87 0 15 53 115 12 119 90S17 21 10-45l28-5c4 36 97 45 98 0-10-56-113-15-118-90-4-57 82-63 122-42 12 7 21 19 24 35" id="ac"/><path fill="#fff" d="M59-47c-2 24 18 29 38 22v24C64 9 27 4 27-40v-127H5v-23h24l9-43h21v43h35v23H59v120" id="ad"/><path fill="#fff" d="M114-163C36-179 61-72 57 0H25l-1-190h30c1 12-1 29 2 39 6-27 23-49 58-41v29" id="ae"/><path fill="#fff" d="M177-190C167-65 218 103 67 71c-23-6-38-20-44-43l32-5c15 47 100 32 89-28v-30C133-14 115 1 83 1 29 1 15-40 15-95c0-56 16-97 71-98 29-1 48 16 59 35 1-10 0-23 2-32h30zM94-22c36 0 50-32 50-73 0-42-14-75-50-75-39 0-46 34-46 75s6 73 46 73" id="af"/><g id="g"><use transform="matrix(0.07469135802469135,0,0,0.07469135802469135,0,0)" xlink:href="#ac"/><use transform="matrix(0.07469135802469135,0,0,0.07469135802469135,13.444444444444443,0)" xlink:href="#ad"/><use transform="matrix(0.07469135802469135,0,0,0.07469135802469135,20.913580246913575,0)" xlink:href="#ae"/><use transform="matrix(0.07469135802469135,0,0,0.07469135802469135,29.801851851851843,0)" xlink:href="#U"/><use transform="matrix(0.07469135802469135,0,0,0.07469135802469135,35.70246913580246,0)" xlink:href="#Y"/><use transform="matrix(0.07469135802469135,0,0,0.07469135802469135,50.640740740740725,0)" xlink:href="#af"/></g><path fill="#fff" d="M96-169c-40 0-48 33-48 73s9 75 48 75c24 0 41-14 43-38l32 2c-6 37-31 61-74 61-59 0-76-41-82-99-10-93 101-131 147-64 4 7 5 14 7 22l-32 3c-4-21-16-35-41-35" id="ag"/><path fill="#fff" d="M115-194c55 1 70 41 70 98S169 2 115 4C84 4 66-9 55-30l1 105H24l-1-265h31l2 30c10-21 28-34 59-34zm-8 174c40 0 45-34 45-75s-6-73-45-74c-42 0-51 32-51 76 0 43 10 73 51 73" id="ah"/><path fill="#fff" d="M100-194c62-1 85 37 85 99 1 63-27 99-86 99S16-35 15-95c0-66 28-99 85-99zM99-20c44 1 53-31 53-75 0-43-8-75-51-75s-53 32-53 75 10 74 51 75" id="ai"/><g id="h"><use transform="matrix(0.07469135802469135,0,0,0.07469135802469135,0,0)" xlink:href="#V"/><use transform="matrix(0.07469135802469135,0,0,0.07469135802469135,14.938271604938269,0)" xlink:href="#ab"/><use transform="matrix(0.07469135802469135,0,0,0.07469135802469135,29.876543209876537,0)" xlink:href="#ac"/><use transform="matrix(0.07469135802469135,0,0,0.07469135802469135,43.32098765432098,0)" xlink:href="#ag"/><use transform="matrix(0.07469135802469135,0,0,0.07469135802469135,56.76543209876542,0)" xlink:href="#ae"/><use transform="matrix(0.07469135802469135,0,0,0.07469135802469135,65.6537037037037,0)" xlink:href="#U"/><use transform="matrix(0.07469135802469135,0,0,0.07469135802469135,71.55432098765431,0)" xlink:href="#ah"/><use transform="matrix(0.07469135802469135,0,0,0.07469135802469135,86.49259259259257,0)" xlink:href="#ad"/><use transform="matrix(0.07469135802469135,0,0,0.07469135802469135,93.96172839506171,0)" xlink:href="#U"/><use transform="matrix(0.07469135802469135,0,0,0.07469135802469135,99.86234567901234,0)" xlink:href="#ai"/><use transform="matrix(0.07469135802469135,0,0,0.07469135802469135,114.80061728395059,0)" xlink:href="#Y"/><use transform="matrix(0.07469135802469135,0,0,0.07469135802469135,129.73888888888885,0)" xlink:href="#W"/></g><path fill="#fff" d="M24 0v-261h32V0H24" id="aj"/><path fill="#fff" d="M179-190L93 31C79 59 56 82 12 73V49c39 6 53-20 64-50L1-190h34L92-34l54-156h33" id="ak"/><path fill="#fff" d="M-5 72V49h209v23H-5" id="al"/><g id="i"><use transform="matrix(0.07469135802469135,0,0,0.07469135802469135,0,0)" xlink:href="#V"/><use transform="matrix(0.07469135802469135,0,0,0.07469135802469135,14.938271604938269,0)" xlink:href="#Z"/><use transform="matrix(0.07469135802469135,0,0,0.07469135802469135,29.876543209876537,0)" xlink:href="#U"/><use transform="matrix(0.07469135802469135,0,0,0.07469135802469135,35.777160493827154,0)" xlink:href="#aj"/><use transform="matrix(0.07469135802469135,0,0,0.07469135802469135,41.67777777777777,0)" xlink:href="#ak"/><use transform="matrix(0.07469135802469135,0,0,0.07469135802469135,55.12222222222221,0)" xlink:href="#al"/><use transform="matrix(0.07469135802469135,0,0,0.07469135802469135,70.06049382716049,0)" xlink:href="#ae"/><use transform="matrix(0.07469135802469135,0,0,0.07469135802469135,78.94876543209875,0)" xlink:href="#Z"/><use transform="matrix(0.07469135802469135,0,0,0.07469135802469135,93.88703703703702,0)" xlink:href="#ad"/><use transform="matrix(0.07469135802469135,0,0,0.07469135802469135,101.35617283950616,0)" xlink:href="#ab"/></g><path fill="#fff" d="M108 0H70L1-190h34L89-25l56-165h34" id="am"/><path fill="#fff" d="M115-194c53 0 69 39 70 98 0 66-23 100-70 100C84 3 66-7 56-30L54 0H23l1-261h32v101c10-23 28-34 59-34zm-8 174c40 0 45-34 45-75 0-40-5-75-45-74-42 0-51 32-51 76 0 43 10 73 51 73" id="an"/><g id="j"><use transform="matrix(0.07469135802469135,0,0,0.07469135802469135,0,0)" xlink:href="#Z"/><use transform="matrix(0.07469135802469135,0,0,0.07469135802469135,14.938271604938269,0)" xlink:href="#am"/><use transform="matrix(0.07469135802469135,0,0,0.07469135802469135,28.38271604938271,0)" xlink:href="#Z"/><use transform="matrix(0.07469135802469135,0,0,0.07469135802469135,43.32098765432098,0)" xlink:href="#U"/><use transform="matrix(0.07469135802469135,0,0,0.07469135802469135,49.2216049382716,0)" xlink:href="#aj"/><use transform="matrix(0.07469135802469135,0,0,0.07469135802469135,55.12222222222221,0)" xlink:href="#Z"/><use transform="matrix(0.07469135802469135,0,0,0.07469135802469135,70.06049382716049,0)" xlink:href="#an"/><use transform="matrix(0.07469135802469135,0,0,0.07469135802469135,84.99876543209875,0)" xlink:href="#aj"/><use transform="matrix(0.07469135802469135,0,0,0.07469135802469135,90.89938271604937,0)" xlink:href="#ab"/></g><g id="k"><use transform="matrix(0.07469135802469135,0,0,0.07469135802469135,0,0)" xlink:href="#an"/><use transform="matrix(0.07469135802469135,0,0,0.07469135802469135,14.938271604938269,0)" xlink:href="#ai"/><use transform="matrix(0.07469135802469135,0,0,0.07469135802469135,29.876543209876537,0)" xlink:href="#ai"/><use transform="matrix(0.07469135802469135,0,0,0.07469135802469135,44.81481481481481,0)" xlink:href="#aj"/><use transform="matrix(0.07469135802469135,0,0,0.07469135802469135,50.715432098765426,0)" xlink:href="#ab"/><use transform="matrix(0.07469135802469135,0,0,0.07469135802469135,65.6537037037037,0)" xlink:href="#Z"/><use transform="matrix(0.07469135802469135,0,0,0.07469135802469135,80.59197530864196,0)" xlink:href="#Y"/></g><g id="l"><use transform="matrix(0.07469135802469135,0,0,0.07469135802469135,0,0)" xlink:href="#aj"/><use transform="matrix(0.07469135802469135,0,0,0.07469135802469135,5.900617283950616,0)" xlink:href="#U"/><use transform="matrix(0.07469135802469135,0,0,0.07469135802469135,11.801234567901233,0)" xlink:href="#ag"/><use transform="matrix(0.07469135802469135,0,0,0.07469135802469135,25.245679012345676,0)" xlink:href="#ab"/><use transform="matrix(0.07469135802469135,0,0,0.07469135802469135,40.18395061728394,0)" xlink:href="#Y"/><use transform="matrix(0.07469135802469135,0,0,0.07469135802469135,55.122222222222206,0)" xlink:href="#ac"/><use transform="matrix(0.07469135802469135,0,0,0.07469135802469135,68.56666666666665,0)" xlink:href="#ab"/><use transform="matrix(0.07469135802469135,0,0,0.07469135802469135,83.50493827160491,0)" xlink:href="#al"/><use transform="matrix(0.07469135802469135,0,0,0.07469135802469135,98.44320987654318,0)" xlink:href="#ah"/><use transform="matrix(0.07469135802469135,0,0,0.07469135802469135,113.38148148148144,0)" xlink:href="#aj"/><use transform="matrix(0.07469135802469135,0,0,0.07469135802469135,119.28209876543207,0)" xlink:href="#Z"/><use transform="matrix(0.07469135802469135,0,0,0.07469135802469135,134.22037037037035,0)" xlink:href="#ad"/><use transform="matrix(0.07469135802469135,0,0,0.07469135802469135,141.6895061728395,0)" xlink:href="#ab"/></g><path fill="#fff" d="M101-234c-31-9-42 10-38 44h38v23H63V0H32v-167H5v-23h27c-7-52 17-82 69-68v24" id="ao"/><g id="m"><use transform="matrix(0.07469135802469135,0,0,0.07469135802469135,0,0)" xlink:href="#ao"/><use transform="matrix(0.07469135802469135,0,0,0.07469135802469135,7.469135802469134,0)" xlink:href="#U"/><use transform="matrix(0.07469135802469135,0,0,0.07469135802469135,13.36975308641975,0)" xlink:href="#Y"/><use transform="matrix(0.07469135802469135,0,0,0.07469135802469135,28.30802469135802,0)" xlink:href="#ab"/><use transform="matrix(0.07469135802469135,0,0,0.07469135802469135,43.2462962962963,0)" xlink:href="#al"/><use transform="matrix(0.07469135802469135,0,0,0.07469135802469135,58.18456790123456,0)" xlink:href="#Z"/><use transform="matrix(0.07469135802469135,0,0,0.07469135802469135,73.12283950617282,0)" xlink:href="#aa"/><use transform="matrix(0.07469135802469135,0,0,0.07469135802469135,95.45555555555553,0)" xlink:href="#ai"/><use transform="matrix(0.07469135802469135,0,0,0.07469135802469135,110.39382716049379,0)" xlink:href="#X"/><use transform="matrix(0.07469135802469135,0,0,0.07469135802469135,125.33209876543206,0)" xlink:href="#Y"/><use transform="matrix(0.07469135802469135,0,0,0.07469135802469135,140.27037037037033,0)" xlink:href="#ad"/></g><use transform="matrix(0.07469135802469135,0,0,0.07469135802469135,0,0)" xlink:href="#W" id="n"/><g id="o"><use transform="matrix(0.07469135802469135,0,0,0.07469135802469135,0,0)" xlink:href="#Y"/><use transform="matrix(0.07469135802469135,0,0,0.07469135802469135,14.938271604938269,0)" xlink:href="#X"/><use transform="matrix(0.07469135802469135,0,0,0.07469135802469135,29.876543209876537,0)" xlink:href="#aa"/><use transform="matrix(0.07469135802469135,0,0,0.07469135802469135,52.20925925925925,0)" xlink:href="#an"/><use transform="matrix(0.07469135802469135,0,0,0.07469135802469135,67.14753086419752,0)" xlink:href="#ab"/><use transform="matrix(0.07469135802469135,0,0,0.07469135802469135,82.08580246913579,0)" xlink:href="#ae"/></g><g id="p"><use transform="matrix(0.07469135802469135,0,0,0.07469135802469135,0,0)" xlink:href="#an"/><use transform="matrix(0.07469135802469135,0,0,0.07469135802469135,14.938271604938269,0)" xlink:href="#ae"/><use transform="matrix(0.07469135802469135,0,0,0.07469135802469135,23.82654320987654,0)" xlink:href="#Z"/><use transform="matrix(0.07469135802469135,0,0,0.07469135802469135,38.764814814814805,0)" xlink:href="#Y"/><use transform="matrix(0.07469135802469135,0,0,0.07469135802469135,53.70308641975308,0)" xlink:href="#V"/></g><g id="q"><use transform="matrix(0.07469135802469135,0,0,0.07469135802469135,0,0)" xlink:href="#ag"/><use transform="matrix(0.07469135802469135,0,0,0.07469135802469135,13.444444444444443,0)" xlink:href="#ae"/><use transform="matrix(0.07469135802469135,0,0,0.07469135802469135,22.33271604938271,0)" xlink:href="#ab"/><use transform="matrix(0.07469135802469135,0,0,0.07469135802469135,37.270987654320976,0)" xlink:href="#Z"/><use transform="matrix(0.07469135802469135,0,0,0.07469135802469135,52.20925925925924,0)" xlink:href="#ad"/><use transform="matrix(0.07469135802469135,0,0,0.07469135802469135,59.678395061728374,0)" xlink:href="#ab"/><use transform="matrix(0.07469135802469135,0,0,0.07469135802469135,74.61666666666665,0)" xlink:href="#V"/><use transform="matrix(0.07469135802469135,0,0,0.07469135802469135,89.55493827160491,0)" xlink:href="#al"/><use transform="matrix(0.07469135802469135,0,0,0.07469135802469135,104.49320987654318,0)" xlink:href="#Z"/><use transform="matrix(0.07469135802469135,0,0,0.07469135802469135,119.43148148148144,0)" xlink:href="#ad"/></g><path fill="#fff" d="M30-248c118-7 216 8 213 122C240-48 200 0 122 0H30v-248zM63-27c89 8 146-16 146-99s-60-101-146-95v194" id="ap"/><g id="r"><use transform="matrix(0.07469135802469135,0,0,0.07469135802469135,0,0)" xlink:href="#ap"/><use transform="matrix(0.07469135802469135,0,0,0.07469135802469135,19.34506172839506,0)" xlink:href="#Z"/><use transform="matrix(0.07469135802469135,0,0,0.07469135802469135,34.28333333333333,0)" xlink:href="#ad"/><use transform="matrix(0.07469135802469135,0,0,0.07469135802469135,41.752469135802464,0)" xlink:href="#ab"/></g><path fill="#fff" d="M115-3C79 11 28 4 28-45v-112H4v-33h27l15-45h31v45h36v33H77v99c-1 23 16 31 38 25v30" id="aq"/><path fill="#fff" d="M185-48c-13 30-37 53-82 52C43 2 14-33 14-96s30-98 90-98c62 0 83 45 84 108H66c0 31 8 55 39 56 18 0 30-7 34-22zm-45-69c5-46-57-63-70-21-2 6-4 13-4 21h74" id="ar"/><path fill="#fff" d="M195-6C206 82 75 100 31 46c-4-6-6-13-8-21l49-6c3 16 16 24 34 25 40 0 42-37 40-79-11 22-30 35-61 35-53 0-70-43-70-97 0-56 18-96 73-97 30 0 46 14 59 34l2-30h47zm-90-29c32 0 41-27 41-63 0-35-9-62-40-62-32 0-39 29-40 63 0 36 9 62 39 62" id="as"/><path fill="#fff" d="M110-194c64 0 96 36 96 99 0 64-35 99-97 99-61 0-95-36-95-99 0-62 34-99 96-99zm-1 164c35 0 45-28 45-65 0-40-10-65-43-65-34 0-45 26-45 65 0 36 10 65 43 65" id="at"/><path fill="#fff" d="M123 10C108 53 80 86 19 72V37c35 8 53-11 59-39L3-190h52l48 148c12-52 28-100 44-148h51" id="au"/><g id="s"><use transform="matrix(0.07469135802469135,0,0,0.07469135802469135,0,0)" xlink:href="#Q"/><use transform="matrix(0.07469135802469135,0,0,0.07469135802469135,19.34506172839506,0)" xlink:href="#R"/><use transform="matrix(0.07469135802469135,0,0,0.07469135802469135,34.28333333333333,0)" xlink:href="#aq"/><use transform="matrix(0.07469135802469135,0,0,0.07469135802469135,43.1716049382716,0)" xlink:href="#ar"/><use transform="matrix(0.07469135802469135,0,0,0.07469135802469135,58.109876543209865,0)" xlink:href="#as"/><use transform="matrix(0.07469135802469135,0,0,0.07469135802469135,74.46728395061727,0)" xlink:href="#at"/><use transform="matrix(0.07469135802469135,0,0,0.07469135802469135,90.82469135802468,0)" xlink:href="#S"/><use transform="matrix(0.07469135802469135,0,0,0.07469135802469135,101.28148148148146,0)" xlink:href="#au"/></g><path fill="#fff" d="M24 0v-248h52V0H24" id="av"/><path fill="#fff" d="M220-157c-53 9-28 100-34 157h-49v-107c1-27-5-49-29-50C55-147 81-57 75 0H25l-1-190h47c2 12-1 28 3 38 10-53 101-56 108 0 13-22 24-43 59-42 82 1 51 116 57 194h-49v-107c-1-25-5-48-29-50" id="aw"/><path fill="#fff" d="M137-138c1-29-70-34-71-4 15 46 118 7 119 86 1 83-164 76-172 9l43-7c4 19 20 25 44 25 33 8 57-30 24-41C81-84 22-81 20-136c-2-80 154-74 161-7" id="ax"/><g id="t"><use transform="matrix(0.07469135802469135,0,0,0.07469135802469135,0,0)" xlink:href="#Q"/><use transform="matrix(0.07469135802469135,0,0,0.07469135802469135,19.34506172839506,0)" xlink:href="#R"/><use transform="matrix(0.07469135802469135,0,0,0.07469135802469135,34.28333333333333,0)" xlink:href="#S"/><use transform="matrix(0.07469135802469135,0,0,0.07469135802469135,44.740123456790116,0)" xlink:href="#av"/><use transform="matrix(0.07469135802469135,0,0,0.07469135802469135,52.20925925925925,0)" xlink:href="#aw"/><use transform="matrix(0.07469135802469135,0,0,0.07469135802469135,76.11049382716048,0)" xlink:href="#R"/><use transform="matrix(0.07469135802469135,0,0,0.07469135802469135,91.04876543209875,0)" xlink:href="#as"/><use transform="matrix(0.07469135802469135,0,0,0.07469135802469135,107.40617283950616,0)" xlink:href="#ar"/><use transform="matrix(0.07469135802469135,0,0,0.07469135802469135,122.34444444444442,0)" xlink:href="#ax"/></g><g id="u"><use transform="matrix(0.07469135802469135,0,0,0.07469135802469135,0,0)" xlink:href="#U"/><use transform="matrix(0.07469135802469135,0,0,0.07469135802469135,5.900617283950616,0)" xlink:href="#aa"/><use transform="matrix(0.07469135802469135,0,0,0.07469135802469135,28.233333333333327,0)" xlink:href="#Z"/><use transform="matrix(0.07469135802469135,0,0,0.07469135802469135,43.1716049382716,0)" xlink:href="#af"/><use transform="matrix(0.07469135802469135,0,0,0.07469135802469135,58.109876543209865,0)" xlink:href="#ab"/><use transform="matrix(0.07469135802469135,0,0,0.07469135802469135,73.04814814814813,0)" xlink:href="#al"/><use transform="matrix(0.07469135802469135,0,0,0.07469135802469135,87.9864197530864,0)" xlink:href="#Y"/><use transform="matrix(0.07469135802469135,0,0,0.07469135802469135,102.92469135802466,0)" xlink:href="#Z"/><use transform="matrix(0.07469135802469135,0,0,0.07469135802469135,117.86296296296292,0)" xlink:href="#aa"/><use transform="matrix(0.07469135802469135,0,0,0.07469135802469135,140.19567901234564,0)" xlink:href="#ab"/></g><path fill="#fff" d="M169-182c-1-43-94-46-97-3 18 66 151 10 154 114 3 95-165 93-204 36-6-8-10-19-12-30l50-8c3 46 112 56 116 5-17-69-150-10-154-114-4-87 153-88 188-35 5 8 8 18 10 28" id="ay"/><path fill="#fff" d="M135-194c53 0 70 44 70 98 0 56-19 98-73 100-31 1-45-17-59-34 3 33 2 69 2 105H25l-1-265h48c2 10 0 23 3 31 11-24 29-35 60-35zM114-30c33 0 39-31 40-66 0-38-9-64-40-64-56 0-55 130 0 130" id="az"/><path fill="#fff" d="M190-63c-7 42-38 67-86 67-59 0-84-38-90-98-12-110 154-137 174-36l-49 2c-2-19-15-32-35-32-30 0-35 28-38 64-6 74 65 87 74 30" id="aA"/><path fill="#fff" d="M25-224v-37h50v37H25zM25 0v-190h50V0H25" id="aB"/><path fill="#fff" d="M121-226c-27-7-43 5-38 36h38v33H83V0H34v-157H6v-33h28c-9-59 32-81 87-68v32" id="aC"/><path fill="#fff" d="M135-194c87-1 58 113 63 194h-50c-7-57 23-157-34-157-59 0-34 97-39 157H25l-1-190h47c2 12-1 28 3 38 12-26 28-41 61-42" id="aD"/><g id="v"><use transform="matrix(0.07469135802469135,0,0,0.07469135802469135,0,0)" xlink:href="#Q"/><use transform="matrix(0.07469135802469135,0,0,0.07469135802469135,19.34506172839506,0)" xlink:href="#R"/><use transform="matrix(0.07469135802469135,0,0,0.07469135802469135,34.28333333333333,0)" xlink:href="#S"/><use transform="matrix(0.07469135802469135,0,0,0.07469135802469135,44.740123456790116,0)" xlink:href="#ay"/><use transform="matrix(0.07469135802469135,0,0,0.07469135802469135,62.66604938271604,0)" xlink:href="#az"/><use transform="matrix(0.07469135802469135,0,0,0.07469135802469135,79.02345679012345,0)" xlink:href="#ar"/><use transform="matrix(0.07469135802469135,0,0,0.07469135802469135,93.96172839506171,0)" xlink:href="#aA"/><use transform="matrix(0.07469135802469135,0,0,0.07469135802469135,108.89999999999998,0)" xlink:href="#aB"/><use transform="matrix(0.07469135802469135,0,0,0.07469135802469135,116.36913580246912,0)" xlink:href="#aC"/><use transform="matrix(0.07469135802469135,0,0,0.07469135802469135,125.25740740740738,0)" xlink:href="#aB"/><use transform="matrix(0.07469135802469135,0,0,0.07469135802469135,132.72654320987652,0)" xlink:href="#aA"/><use transform="matrix(0.07469135802469135,0,0,0.07469135802469135,147.6648148148148,0)" xlink:href="#R"/><use transform="matrix(0.07469135802469135,0,0,0.07469135802469135,162.60308641975308,0)" xlink:href="#aq"/><use transform="matrix(0.07469135802469135,0,0,0.07469135802469135,171.49135802469135,0)" xlink:href="#aB"/><use transform="matrix(0.07469135802469135,0,0,0.07469135802469135,178.9604938271605,0)" xlink:href="#at"/><use transform="matrix(0.07469135802469135,0,0,0.07469135802469135,195.3179012345679,0)" xlink:href="#aD"/></g><g id="w"><use transform="matrix(0.07469135802469135,0,0,0.07469135802469135,0,0)" xlink:href="#ay"/><use transform="matrix(0.07469135802469135,0,0,0.07469135802469135,17.925925925925924,0)" xlink:href="#az"/><use transform="matrix(0.07469135802469135,0,0,0.07469135802469135,34.28333333333333,0)" xlink:href="#ar"/><use transform="matrix(0.07469135802469135,0,0,0.07469135802469135,49.2216049382716,0)" xlink:href="#aA"/><use transform="matrix(0.07469135802469135,0,0,0.07469135802469135,64.15987654320986,0)" xlink:href="#aB"/><use transform="matrix(0.07469135802469135,0,0,0.07469135802469135,71.629012345679,0)" xlink:href="#aC"/><use transform="matrix(0.07469135802469135,0,0,0.07469135802469135,80.51728395061727,0)" xlink:href="#aB"/><use transform="matrix(0.07469135802469135,0,0,0.07469135802469135,87.98641975308641,0)" xlink:href="#aA"/><use transform="matrix(0.07469135802469135,0,0,0.07469135802469135,102.92469135802467,0)" xlink:href="#R"/><use transform="matrix(0.07469135802469135,0,0,0.07469135802469135,117.86296296296294,0)" xlink:href="#aq"/><use transform="matrix(0.07469135802469135,0,0,0.07469135802469135,126.75123456790121,0)" xlink:href="#aB"/><use transform="matrix(0.07469135802469135,0,0,0.07469135802469135,134.22037037037035,0)" xlink:href="#at"/><use transform="matrix(0.07469135802469135,0,0,0.07469135802469135,150.57777777777775,0)" xlink:href="#aD"/></g><g id="x"><use transform="matrix(0.07469135802469135,0,0,0.07469135802469135,0,0)" xlink:href="#V"/><use transform="matrix(0.07469135802469135,0,0,0.07469135802469135,14.938271604938269,0)" xlink:href="#ab"/><use transform="matrix(0.07469135802469135,0,0,0.07469135802469135,29.876543209876537,0)" xlink:href="#ac"/><use transform="matrix(0.07469135802469135,0,0,0.07469135802469135,43.32098765432098,0)" xlink:href="#ag"/><use transform="matrix(0.07469135802469135,0,0,0.07469135802469135,56.76543209876542,0)" xlink:href="#ae"/><use transform="matrix(0.07469135802469135,0,0,0.07469135802469135,65.6537037037037,0)" xlink:href="#U"/><use transform="matrix(0.07469135802469135,0,0,0.07469135802469135,71.55432098765431,0)" xlink:href="#ah"/><use transform="matrix(0.07469135802469135,0,0,0.07469135802469135,86.49259259259257,0)" xlink:href="#ad"/><use transform="matrix(0.07469135802469135,0,0,0.07469135802469135,93.96172839506171,0)" xlink:href="#U"/><use transform="matrix(0.07469135802469135,0,0,0.07469135802469135,99.86234567901234,0)" xlink:href="#ai"/><use transform="matrix(0.07469135802469135,0,0,0.07469135802469135,114.80061728395059,0)" xlink:href="#Y"/></g><path fill="#fff" d="M101-251c68 0 85 55 85 127S166 4 100 4C33 4 14-52 14-124c0-73 17-127 87-127zm-1 229c47 0 54-49 54-102s-4-102-53-102c-51 0-55 48-55 102 0 53 5 102 54 102" id="aE"/><path fill="#fff" d="M33 0v-38h34V0H33" id="aF"/><path fill="#fff" d="M27 0v-27h64v-190l-56 39v-29l58-41h29v221h61V0H27" id="aG"/><g id="y"><use transform="matrix(0.07469135802469135,0,0,0.07469135802469135,0,0)" xlink:href="#aE"/><use transform="matrix(0.07469135802469135,0,0,0.07469135802469135,14.938271604938269,0)" xlink:href="#aF"/><use transform="matrix(0.07469135802469135,0,0,0.07469135802469135,22.407407407407405,0)" xlink:href="#aF"/><use transform="matrix(0.07469135802469135,0,0,0.07469135802469135,29.876543209876537,0)" xlink:href="#aG"/></g><use transform="matrix(0.07469135802469135,0,0,0.07469135802469135,0,0)" xlink:href="#aG" id="z"/><path fill="#fff" d="M80-196l47-18 7 23-49 13 32 44-20 13-27-46-27 45-21-12 33-44-49-13 8-23 47 19-2-53h23" id="aH"/><g id="A"><use transform="matrix(0.07469135802469135,0,0,0.07469135802469135,0,0)" xlink:href="#aG"/><use transform="matrix(0.07469135802469135,0,0,0.07469135802469135,14.938271604938269,0)" xlink:href="#aF"/><use transform="matrix(0.07469135802469135,0,0,0.07469135802469135,22.407407407407405,0)" xlink:href="#aF"/><use transform="matrix(0.07469135802469135,0,0,0.07469135802469135,29.876543209876537,0)" xlink:href="#aH"/></g><g id="B"><use transform="matrix(0.07469135802469135,0,0,0.07469135802469135,0,0)" xlink:href="#aE"/><use transform="matrix(0.07469135802469135,0,0,0.07469135802469135,14.938271604938269,0)" xlink:href="#aF"/><use transform="matrix(0.07469135802469135,0,0,0.07469135802469135,22.407407407407405,0)" xlink:href="#aF"/><use transform="matrix(0.07469135802469135,0,0,0.07469135802469135,29.876543209876537,0)" xlink:href="#aH"/></g><path fill="#fff" d="M212-179c-10-28-35-45-73-45-59 0-87 40-87 99 0 60 29 101 89 101 43 0 62-24 78-52l27 14C228-24 195 4 139 4 59 4 22-46 18-125c-6-104 99-153 187-111 19 9 31 26 39 46" id="aI"/><path fill="#fff" d="M185-189c-5-48-123-54-124 2 14 75 158 14 163 119 3 78-121 87-175 55-17-10-28-26-33-46l33-7c5 56 141 63 141-1 0-78-155-14-162-118-5-82 145-84 179-34 5 7 8 16 11 25" id="aJ"/><g id="C"><use transform="matrix(0.07469135802469135,0,0,0.07469135802469135,0,0)" xlink:href="#aI"/><use transform="matrix(0.07469135802469135,0,0,0.07469135802469135,19.34506172839506,0)" xlink:href="#Z"/><use transform="matrix(0.07469135802469135,0,0,0.07469135802469135,34.28333333333333,0)" xlink:href="#ae"/><use transform="matrix(0.07469135802469135,0,0,0.07469135802469135,43.1716049382716,0)" xlink:href="#aJ"/><use transform="matrix(0.07469135802469135,0,0,0.07469135802469135,61.09753086419752,0)" xlink:href="#ah"/><use transform="matrix(0.07469135802469135,0,0,0.07469135802469135,76.03580246913579,0)" xlink:href="#ab"/><use transform="matrix(0.07469135802469135,0,0,0.07469135802469135,90.97407407407405,0)" xlink:href="#ag"/><use transform="matrix(0.07469135802469135,0,0,0.07469135802469135,104.4185185185185,0)" xlink:href="#U"/><use transform="matrix(0.07469135802469135,0,0,0.07469135802469135,110.3191358024691,0)" xlink:href="#ao"/><use transform="matrix(0.07469135802469135,0,0,0.07469135802469135,117.78827160493825,0)" xlink:href="#U"/><use transform="matrix(0.07469135802469135,0,0,0.07469135802469135,123.68888888888887,0)" xlink:href="#ag"/><use transform="matrix(0.07469135802469135,0,0,0.07469135802469135,137.13333333333333,0)" xlink:href="#Z"/><use transform="matrix(0.07469135802469135,0,0,0.07469135802469135,152.0716049382716,0)" xlink:href="#ad"/><use transform="matrix(0.07469135802469135,0,0,0.07469135802469135,159.54074074074074,0)" xlink:href="#U"/><use transform="matrix(0.07469135802469135,0,0,0.07469135802469135,165.44135802469137,0)" xlink:href="#ai"/><use transform="matrix(0.07469135802469135,0,0,0.07469135802469135,180.37962962962965,0)" xlink:href="#Y"/></g><path fill="#fff" d="M240-174c0 40-23 61-54 70L253 0h-59l-57-94H76V0H24v-248c93 4 217-23 216 74zM76-134c48-2 112 12 112-38 0-48-66-32-112-35v73" id="aK"/><path fill="#fff" d="M25 0v-261h50V0H25" id="aL"/><g id="D"><use transform="matrix(0.07469135802469135,0,0,0.07469135802469135,0,0)" xlink:href="#aK"/><use transform="matrix(0.07469135802469135,0,0,0.07469135802469135,19.34506172839506,0)" xlink:href="#ar"/><use transform="matrix(0.07469135802469135,0,0,0.07469135802469135,34.28333333333333,0)" xlink:href="#aD"/><use transform="matrix(0.07469135802469135,0,0,0.07469135802469135,50.64074074074074,0)" xlink:href="#aq"/><use transform="matrix(0.07469135802469135,0,0,0.07469135802469135,59.529012345679014,0)" xlink:href="#R"/><use transform="matrix(0.07469135802469135,0,0,0.07469135802469135,74.46728395061727,0)" xlink:href="#aL"/></g><g id="E"><use transform="matrix(0.07469135802469135,0,0,0.07469135802469135,0,0)" xlink:href="#ac"/><use transform="matrix(0.07469135802469135,0,0,0.07469135802469135,13.444444444444443,0)" xlink:href="#ad"/><use transform="matrix(0.07469135802469135,0,0,0.07469135802469135,20.913580246913575,0)" xlink:href="#Z"/><use transform="matrix(0.07469135802469135,0,0,0.07469135802469135,35.85185185185185,0)" xlink:href="#ae"/><use transform="matrix(0.07469135802469135,0,0,0.07469135802469135,44.740123456790116,0)" xlink:href="#ad"/><use transform="matrix(0.07469135802469135,0,0,0.07469135802469135,52.20925925925925,0)" xlink:href="#al"/><use transform="matrix(0.07469135802469135,0,0,0.07469135802469135,67.14753086419752,0)" xlink:href="#V"/><use transform="matrix(0.07469135802469135,0,0,0.07469135802469135,82.08580246913579,0)" xlink:href="#Z"/><use transform="matrix(0.07469135802469135,0,0,0.07469135802469135,97.02407407407406,0)" xlink:href="#ad"/><use transform="matrix(0.07469135802469135,0,0,0.07469135802469135,104.49320987654319,0)" xlink:href="#ab"/></g><g id="F"><use transform="matrix(0.07469135802469135,0,0,0.07469135802469135,0,0)" xlink:href="#ap"/><use transform="matrix(0.07469135802469135,0,0,0.07469135802469135,19.34506172839506,0)" xlink:href="#Z"/><use transform="matrix(0.07469135802469135,0,0,0.07469135802469135,34.28333333333333,0)" xlink:href="#ad"/><use transform="matrix(0.07469135802469135,0,0,0.07469135802469135,41.752469135802464,0)" xlink:href="#ab"/></g><g id="G"><use transform="matrix(0.07469135802469135,0,0,0.07469135802469135,0,0)" xlink:href="#ab"/><use transform="matrix(0.07469135802469135,0,0,0.07469135802469135,14.938271604938269,0)" xlink:href="#Y"/><use transform="matrix(0.07469135802469135,0,0,0.07469135802469135,29.876543209876537,0)" xlink:href="#V"/><use transform="matrix(0.07469135802469135,0,0,0.07469135802469135,44.81481481481481,0)" xlink:href="#al"/><use transform="matrix(0.07469135802469135,0,0,0.07469135802469135,59.753086419753075,0)" xlink:href="#V"/><use transform="matrix(0.07469135802469135,0,0,0.07469135802469135,74.69135802469134,0)" xlink:href="#Z"/><use transform="matrix(0.07469135802469135,0,0,0.07469135802469135,89.62962962962959,0)" xlink:href="#ad"/><use transform="matrix(0.07469135802469135,0,0,0.07469135802469135,97.09876543209874,0)" xlink:href="#ab"/><use transform="matrix(0.07469135802469135,0,0,0.07469135802469135,112.037037037037,0)" xlink:href="#W"/></g><path fill="#fff" d="M141 0L90-78 38 0H4l68-98-65-92h35l48 74 47-74h35l-64 92 68 98h-35" id="aM"/><g id="H"><use transform="matrix(0.07469135802469135,0,0,0.07469135802469135,0,0)" xlink:href="#ab"/><use transform="matrix(0.07469135802469135,0,0,0.07469135802469135,14.938271604938269,0)" xlink:href="#aM"/><use transform="matrix(0.07469135802469135,0,0,0.07469135802469135,28.38271604938271,0)" xlink:href="#ah"/><use transform="matrix(0.07469135802469135,0,0,0.07469135802469135,43.32098765432098,0)" xlink:href="#ab"/><use transform="matrix(0.07469135802469135,0,0,0.07469135802469135,58.25925925925925,0)" xlink:href="#ag"/><use transform="matrix(0.07469135802469135,0,0,0.07469135802469135,71.7037037037037,0)" xlink:href="#ad"/><use transform="matrix(0.07469135802469135,0,0,0.07469135802469135,79.17283950617285,0)" xlink:href="#al"/><use transform="matrix(0.07469135802469135,0,0,0.07469135802469135,94.1111111111111,0)" xlink:href="#ae"/><use transform="matrix(0.07469135802469135,0,0,0.07469135802469135,102.99938271604937,0)" xlink:href="#ab"/><use transform="matrix(0.07469135802469135,0,0,0.07469135802469135,117.93765432098763,0)" xlink:href="#ad"/><use transform="matrix(0.07469135802469135,0,0,0.07469135802469135,125.40679012345677,0)" xlink:href="#X"/><use transform="matrix(0.07469135802469135,0,0,0.07469135802469135,140.34506172839505,0)" xlink:href="#ae"/><use transform="matrix(0.07469135802469135,0,0,0.07469135802469135,149.23333333333332,0)" xlink:href="#Y"/><use transform="matrix(0.07469135802469135,0,0,0.07469135802469135,164.1716049382716,0)" xlink:href="#al"/><use transform="matrix(0.07469135802469135,0,0,0.07469135802469135,179.10987654320988,0)" xlink:href="#V"/><use transform="matrix(0.07469135802469135,0,0,0.07469135802469135,194.04814814814816,0)" xlink:href="#Z"/><use transform="matrix(0.07469135802469135,0,0,0.07469135802469135,208.98641975308647,0)" xlink:href="#ad"/><use transform="matrix(0.07469135802469135,0,0,0.07469135802469135,216.45555555555558,0)" xlink:href="#ab"/></g><g id="I"><use transform="matrix(0.07469135802469135,0,0,0.07469135802469135,0,0)" xlink:href="#ad"/><use transform="matrix(0.07469135802469135,0,0,0.07469135802469135,7.469135802469134,0)" xlink:href="#ai"/><use transform="matrix(0.07469135802469135,0,0,0.07469135802469135,22.407407407407405,0)" xlink:href="#ad"/><use transform="matrix(0.07469135802469135,0,0,0.07469135802469135,29.876543209876537,0)" xlink:href="#Z"/><use transform="matrix(0.07469135802469135,0,0,0.07469135802469135,44.81481481481481,0)" xlink:href="#aj"/></g><g id="J"><use transform="matrix(0.07469135802469135,0,0,0.07469135802469135,0,0)" xlink:href="#X"/><use transform="matrix(0.07469135802469135,0,0,0.07469135802469135,14.938271604938269,0)" xlink:href="#ah"/><use transform="matrix(0.07469135802469135,0,0,0.07469135802469135,29.876543209876537,0)" xlink:href="#V"/><use transform="matrix(0.07469135802469135,0,0,0.07469135802469135,44.81481481481481,0)" xlink:href="#Z"/><use transform="matrix(0.07469135802469135,0,0,0.07469135802469135,59.753086419753075,0)" xlink:href="#ad"/><use transform="matrix(0.07469135802469135,0,0,0.07469135802469135,67.22222222222221,0)" xlink:href="#ab"/><use transform="matrix(0.07469135802469135,0,0,0.07469135802469135,82.16049382716048,0)" xlink:href="#V"/><use transform="matrix(0.07469135802469135,0,0,0.07469135802469135,97.09876543209874,0)" xlink:href="#al"/><use transform="matrix(0.07469135802469135,0,0,0.07469135802469135,112.037037037037,0)" xlink:href="#Z"/><use transform="matrix(0.07469135802469135,0,0,0.07469135802469135,126.97530864197527,0)" xlink:href="#ad"/></g><path fill="#fff" d="M238-95c0 69-44 99-111 99C63 4 22-25 22-93v-155h51v151c-1 38 19 59 55 60 90 1 49-130 58-211h52v153" id="aN"/><g id="K"><use transform="matrix(0.07469135802469135,0,0,0.07469135802469135,0,0)" xlink:href="#aN"/><use transform="matrix(0.07469135802469135,0,0,0.07469135802469135,19.34506172839506,0)" xlink:href="#ax"/><use transform="matrix(0.07469135802469135,0,0,0.07469135802469135,34.28333333333333,0)" xlink:href="#ar"/><use transform="matrix(0.07469135802469135,0,0,0.07469135802469135,49.2216049382716,0)" xlink:href="#S"/></g><path fill="#fff" d="M206 0h-36l-40-164L89 0H53L-1-190h32L70-26l43-164h34l41 164 42-164h31" id="aO"/><g id="L"><use transform="matrix(0.07469135802469135,0,0,0.07469135802469135,0,0)" xlink:href="#ah"/><use transform="matrix(0.07469135802469135,0,0,0.07469135802469135,14.938271604938269,0)" xlink:href="#Z"/><use transform="matrix(0.07469135802469135,0,0,0.07469135802469135,29.876543209876537,0)" xlink:href="#ac"/><use transform="matrix(0.07469135802469135,0,0,0.07469135802469135,43.32098765432098,0)" xlink:href="#ac"/><use transform="matrix(0.07469135802469135,0,0,0.07469135802469135,56.76543209876542,0)" xlink:href="#aO"/><use transform="matrix(0.07469135802469135,0,0,0.07469135802469135,76.11049382716048,0)" xlink:href="#ai"/><use transform="matrix(0.07469135802469135,0,0,0.07469135802469135,91.04876543209875,0)" xlink:href="#ae"/><use transform="matrix(0.07469135802469135,0,0,0.07469135802469135,99.93703703703702,0)" xlink:href="#V"/><use transform="matrix(0.07469135802469135,0,0,0.07469135802469135,114.87530864197527,0)" xlink:href="#W"/></g><g id="M"><use transform="matrix(0.07469135802469135,0,0,0.07469135802469135,0,0)" xlink:href="#ab"/><use transform="matrix(0.07469135802469135,0,0,0.07469135802469135,14.938271604938269,0)" xlink:href="#aa"/><use transform="matrix(0.07469135802469135,0,0,0.07469135802469135,37.270987654320976,0)" xlink:href="#Z"/><use transform="matrix(0.07469135802469135,0,0,0.07469135802469135,52.20925925925924,0)" xlink:href="#U"/><use transform="matrix(0.07469135802469135,0,0,0.07469135802469135,58.10987654320986,0)" xlink:href="#aj"/><use transform="matrix(0.07469135802469135,0,0,0.07469135802469135,64.01049382716047,0)" xlink:href="#W"/></g><g id="N"><use transform="matrix(0.07469135802469135,0,0,0.07469135802469135,0,0)" xlink:href="#V"/><use transform="matrix(0.07469135802469135,0,0,0.07469135802469135,14.938271604938269,0)" xlink:href="#ae"/><use transform="matrix(0.07469135802469135,0,0,0.07469135802469135,23.82654320987654,0)" xlink:href="#U"/><use transform="matrix(0.07469135802469135,0,0,0.07469135802469135,29.727160493827157,0)" xlink:href="#am"/><use transform="matrix(0.07469135802469135,0,0,0.07469135802469135,43.1716049382716,0)" xlink:href="#ab"/><use transform="matrix(0.07469135802469135,0,0,0.07469135802469135,58.109876543209865,0)" xlink:href="#ae"/><use transform="matrix(0.07469135802469135,0,0,0.07469135802469135,66.99814814814813,0)" xlink:href="#al"/><use transform="matrix(0.07469135802469135,0,0,0.07469135802469135,81.93641975308638,0)" xlink:href="#aj"/><use transform="matrix(0.07469135802469135,0,0,0.07469135802469135,87.83703703703702,0)" xlink:href="#U"/><use transform="matrix(0.07469135802469135,0,0,0.07469135802469135,93.73765432098764,0)" xlink:href="#ag"/><use transform="matrix(0.07469135802469135,0,0,0.07469135802469135,107.18209876543209,0)" xlink:href="#ab"/><use transform="matrix(0.07469135802469135,0,0,0.07469135802469135,122.12037037037035,0)" xlink:href="#Y"/><use transform="matrix(0.07469135802469135,0,0,0.07469135802469135,137.05864197530863,0)" xlink:href="#ac"/><use transform="matrix(0.07469135802469135,0,0,0.07469135802469135,150.50308641975306,0)" xlink:href="#ab"/></g><g id="O"><use transform="matrix(0.07469135802469135,0,0,0.07469135802469135,0,0)" xlink:href="#Z"/><use transform="matrix(0.07469135802469135,0,0,0.07469135802469135,14.938271604938269,0)" xlink:href="#V"/><use transform="matrix(0.07469135802469135,0,0,0.07469135802469135,29.876543209876537,0)" xlink:href="#aa"/><use transform="matrix(0.07469135802469135,0,0,0.07469135802469135,52.20925925925925,0)" xlink:href="#U"/><use transform="matrix(0.07469135802469135,0,0,0.07469135802469135,58.109876543209865,0)" xlink:href="#Y"/></g><g id="P"><use transform="matrix(0.07469135802469135,0,0,0.07469135802469135,0,0)" xlink:href="#Z"/><use transform="matrix(0.07469135802469135,0,0,0.07469135802469135,14.938271604938269,0)" xlink:href="#am"/><use transform="matrix(0.07469135802469135,0,0,0.07469135802469135,28.38271604938271,0)" xlink:href="#Z"/><use transform="matrix(0.07469135802469135,0,0,0.07469135802469135,43.32098765432098,0)" xlink:href="#ad"/><use transform="matrix(0.07469135802469135,0,0,0.07469135802469135,50.79012345679011,0)" xlink:href="#Z"/><use transform="matrix(0.07469135802469135,0,0,0.07469135802469135,65.72839506172838,0)" xlink:href="#ae"/></g></defs></g></svg>